<svg version="1.0" xmlns="http://www.w3.org/2000/svg"
 width="300.000000pt" height="300.000000pt" viewBox="0 0 300.000000 300.000000"
 preserveAspectRatio="xMidYMid meet">
  <defs>
<linearGradient id="paint0_linear" gradientUnits="userSpaceOnUse">
<stop offset="0.259336" stop-color="#FFDB6E"/>
<stop offset="1" stop-color="#FFBC5E"/>
</linearGradient>
</defs>
<g transform="translate(0.000000,300.000000) scale(0.100000,-0.100000)"
stroke="none">
<path d="M956 2984 c-262 -58 -463 -276 -492 -534 -4 -38 -11 -60 -19 -60 -7
0 -50 -19 -96 -42 -113 -56 -228 -170 -281 -278 -90 -188 -89 -375 6 -570 40
-84 157 -204 246 -253 116 -63 151 -70 400 -76 l225 -6 0 -170 0 -170 -155 -3
-155 -2 -23 49 c-30 66 -116 144 -184 167 -155 52 -323 -18 -395 -164 -24 -48
-28 -70 -28 -137 0 -67 4 -89 28 -137 59 -120 197 -199 320 -184 112 14 213
87 259 185 l23 51 217 0 216 0 26 31 26 31 0 229 0 229 145 0 145 0 0 -268 0
-268 -42 -19 c-58 -25 -125 -89 -156 -150 -23 -43 -27 -62 -27 -140 0 -79 4
-97 28 -142 60 -116 160 -177 287 -177 127 0 227 61 287 177 24 45 28 63 28
142 0 78 -4 97 -27 140 -31 61 -98 125 -156 150 l-42 19 0 268 0 268 145 0
145 0 0 -229 0 -229 26 -31 26 -31 216 0 217 0 23 -51 c89 -193 342 -246 500
-104 75 68 107 139 107 240 0 67 -4 89 -28 137 -72 146 -240 216 -395 164 -68
-23 -154 -101 -184 -167 l-23 -49 -155 2 -155 3 0 170 0 170 225 6 c249 6 284
13 400 76 89 49 206 169 246 253 72 149 91 290 56 428 -33 130 -75 205 -167
298 -66 67 -96 89 -171 125 l-91 44 -17 55 c-30 97 -84 180 -175 271 -69 68
-104 95 -171 127 -206 101 -407 108 -617 20 l-72 -30 -38 29 c-141 109 -338
155 -507 117z m265 -184 c73 -25 127 -58 188 -115 62 -57 77 -60 137 -29 27
14 67 35 88 46 137 70 326 68 471 -4 136 -69 260 -226 281 -357 11 -70 33 -94
112 -119 213 -69 330 -235 320 -457 -3 -82 -8 -101 -41 -167 -61 -125 -162
-209 -292 -243 -89 -23 -1881 -23 -1970 0 -130 34 -231 118 -293 244 -36 73
-37 77 -37 190 0 106 2 121 27 175 65 138 156 216 303 261 102 31 115 45 115
117 0 213 114 384 305 455 81 30 202 31 286 3z m-837 -1934 c70 -29 105 -127
69 -196 -52 -101 -192 -108 -254 -14 -27 41 -26 123 3 159 48 61 114 79 182
51z m2355 -1 c54 -27 81 -71 81 -128 0 -88 -56 -147 -141 -147 -120 0 -188
133 -119 230 39 55 120 76 179 45z m-1173 -411 c69 -33 98 -129 60 -202 -50
-96 -202 -96 -252 0 -67 128 62 263 192 202z" fill="url(#paint0_linear)"/>
</g>
</svg>
