<svg version="1.0" xmlns="http://www.w3.org/2000/svg"
 width="512.000000pt" height="512.000000pt" viewBox="0 0 512.000000 512.000000"
 preserveAspectRatio="xMidYMid meet">
<defs>
<linearGradient id="paint0_linear" gradientUnits="userSpaceOnUse">
<stop offset="0.259336" stop-color="#FFDB6E"/>
<stop offset="1" stop-color="#FFBC5E"/>
</linearGradient>
</defs>
<g transform="translate(0.000000,512.000000) scale(0.050000,-0.050000)"
stroke="none">
<path d="M740 9658 c-123 -49 -195 -182 -171 -314 12 -64 104 -164 655 -717
l642 -643 -73 -64 c-140 -123 -141 -296 -2 -418 89 -78 141 -86 514 -78 469 9
502 42 511 511 8 374 0 425 -79 515 -121 138 -294 137 -418 -4 l-63 -72 -633
632 c-693 692 -724 715 -883 652z" fill="url(#paint0_linear)"/>
<path d="M8060 9658 c-27 -11 -335 -304 -683 -652 l-633 -632 -64 73 c-123
140 -296 141 -418 2 -78 -89 -86 -141 -78 -514 9 -469 42 -502 511 -511 374
-8 425 0 515 79 138 121 137 294 -4 418 l-72 63 642 643 c551 553 643 653 655
717 39 215 -170 393 -371 314z" fill="url(#paint0_linear)"/>
<path d="M4370 8547 c-462 -69 -858 -419 -959 -849 -22 -91 -30 -241 -31 -518
l0 -391 -349 -115 c-506 -168 -503 -165 -485 -610 46 -1097 554 -2054 1516
-2856 441 -367 433 -367 863 -9 977 813 1482 1760 1529 2865 18 445 21 442
-485 610 l-349 115 0 391 c-1 578 -58 758 -329 1032 -243 245 -615 381 -921
335z m378 -616 c231 -113 299 -256 308 -646 4 -168 4 -305 0 -305 -4 0 -115
36 -246 80 -131 44 -270 80 -310 80 -40 0 -179 -36 -310 -80 -131 -44 -241
-80 -244 -80 -16 0 -3 539 14 602 88 317 489 494 788 349z m-113 -2231 c117
-71 145 -143 145 -376 0 -307 -72 -414 -280 -414 -208 0 -280 107 -280 414 0
283 89 416 280 416 39 0 99 -18 135 -40z" fill="url(#paint0_linear)"/>
<path d="M1869 4033 c-203 -91 -240 -329 -75 -474 l72 -63 -641 -643 c-501
-502 -644 -657 -655 -708 -41 -198 128 -372 326 -336 64 12 164 104 717 655
l643 642 63 -72 c124 -141 297 -142 418 -4 79 90 87 141 79 515 -7 340 -15
368 -144 464 -70 53 -696 71 -803 24z" fill="url(#paint0_linear)"/>
<path d="M6370 4032 c-159 -71 -190 -159 -190 -544 0 -344 15 -407 117 -492
124 -105 272 -90 384 38 l63 72 643 -642 c553 -551 653 -643 717 -655 198 -36
367 138 326 336 -11 51 -154 206 -655 708 l-641 643 72 63 c167 147 127 388
-79 474 -90 37 -672 37 -757 -1z" fill="url(#paint0_linear)"/>
</g>
</svg>
