<svg version="1.0" xmlns="http://www.w3.org/2000/svg"
 width="900.000000pt" height="900.000000pt" viewBox="0 0 900.000000 900.000000"
 preserveAspectRatio="xMidYMid meet">
  <defs>
<linearGradient id="paint0_linear" gradientUnits="userSpaceOnUse">
<stop offset="0.259336" stop-color="#FFDB6E"/>
<stop offset="1" stop-color="#FFBC5E"/>
</linearGradient>
</defs>
<g transform="translate(0.000000,900.000000) scale(0.100000,-0.100000)"
fill="url(#paint0_linear)" stroke="none">
<path d="M4360 8985 c0 -8 -12 -18 -27 -21 -93 -23 -201 -168 -202 -270 -1
-42 -11 -57 -46 -67 -44 -13 -111 -40 -182 -72 -40 -19 -76 -35 -79 -35 -4 0
-27 16 -53 34 -113 83 -252 92 -366 24 -48 -29 -374 -358 -414 -418 -35 -54
-36 -56 -35 -160 0 -111 9 -137 71 -213 29 -36 29 -39 -6 -112 -15 -33 -36
-80 -46 -105 -49 -129 -47 -127 -115 -134 -97 -11 -178 -64 -234 -154 -40 -64
-46 -116 -46 -379 0 -304 11 -353 97 -437 51 -51 116 -82 186 -91 66 -8 57 3
128 -170 18 -44 39 -89 46 -100 20 -29 16 -51 -14 -87 -56 -66 -68 -104 -68
-207 0 -135 13 -155 248 -388 171 -170 198 -193 250 -212 114 -42 265 -15 331
58 25 27 43 26 108 -5 72 -35 104 -49 163 -69 68 -24 75 -31 75 -77 0 -101
103 -233 215 -276 53 -21 74 -22 321 -22 242 0 268 2 315 20 119 47 183 122
216 254 l20 80 75 26 c41 15 103 41 138 58 76 39 90 39 120 7 13 -14 28 -25
33 -25 6 0 18 -6 26 -13 41 -35 167 -48 245 -25 68 20 104 48 271 215 236 234
255 264 255 392 0 86 -19 142 -72 217 l-29 41 34 74 c19 41 42 94 51 119 41
106 43 107 104 115 104 13 184 67 243 165 l34 55 0 310 0 310 -25 45 c-53 97
-147 165 -246 176 -42 5 -59 13 -74 32 -11 13 -20 31 -20 38 0 7 -7 30 -16 51
-36 85 -47 110 -65 144 -21 41 -18 59 17 102 45 54 64 114 64 198 0 125 -21
158 -224 363 -94 95 -187 184 -206 198 -36 28 -99 52 -161 63 -65 12 -207 -39
-248 -89 -19 -22 -24 -21 -126 23 -87 38 -152 64 -186 74 -11 4 -20 26 -28 67
-13 75 -39 133 -83 181 -40 43 -91 79 -112 79 -9 0 -21 9 -28 20 -12 19 -24
20 -315 20 -261 0 -303 -2 -303 -15z m468 -351 c20 -6 22 -12 22 -80 0 -143
42 -195 190 -233 144 -38 257 -86 410 -175 65 -37 133 -36 188 3 22 16 56 46
76 65 19 20 41 36 48 36 18 0 248 -232 248 -250 0 -9 -23 -38 -51 -65 -94 -92
-104 -178 -33 -283 41 -61 105 -204 135 -302 71 -232 86 -248 242 -259 l92 -6
0 -180 0 -180 -97 -6 c-89 -6 -101 -9 -136 -38 -41 -32 -58 -70 -96 -206 -27
-97 -92 -241 -146 -325 -66 -102 -49 -192 54 -289 20 -19 36 -42 36 -51 0 -18
-230 -250 -248 -250 -7 0 -33 21 -59 46 -71 69 -100 84 -162 84 -42 0 -64 -6
-100 -28 -116 -72 -329 -159 -452 -186 -41 -9 -92 -49 -116 -91 -18 -33 -23
-56 -23 -123 l0 -82 -182 2 -183 3 -5 85 c-3 47 -12 98 -20 114 -21 40 -81 87
-127 97 -134 29 -314 103 -448 184 -29 17 -55 24 -93 25 -65 0 -81 -8 -154
-76 -31 -30 -61 -54 -66 -54 -15 0 -252 238 -252 253 0 7 23 35 51 62 88 85
102 160 49 256 -92 167 -136 273 -176 424 -15 55 -28 79 -60 111 -45 45 -73
54 -175 54 -63 0 -69 2 -74 23 -3 12 -4 94 -3 182 l3 160 92 6 c154 11 194 51
234 229 16 75 104 273 156 351 28 43 40 123 24 170 -6 19 -36 60 -66 91 -30
31 -55 62 -55 68 0 17 236 250 253 250 7 0 29 -16 48 -36 67 -72 107 -94 165
-94 40 0 65 7 101 28 144 85 331 161 454 186 85 18 139 100 139 211 0 42 5 76
12 83 13 13 292 17 336 6z"/>
<path d="M4530 8034 c-89 -9 -234 -52 -339 -101 -202 -95 -431 -315 -511 -491
-68 -152 -76 -173 -98 -267 -24 -99 -24 -392 0 -490 78 -323 296 -599 593
-749 263 -133 601 -152 870 -48 164 63 290 144 410 266 168 169 262 355 310
614 38 208 -8 480 -116 678 -156 286 -398 475 -724 564 -70 20 -297 33 -395
24z m265 -359 c92 -16 194 -52 250 -87 128 -82 236 -196 293 -311 61 -122 82
-209 82 -347 0 -158 -24 -241 -117 -413 -27 -51 -144 -166 -219 -216 -118 -79
-280 -131 -412 -131 -67 0 -230 29 -270 49 -9 4 -35 16 -57 27 -193 89 -339
257 -407 470 -19 58 -22 92 -22 214 0 160 14 223 75 344 150 296 479 460 804
401z"/>
<path d="M1354 8181 c-60 -43 -74 -70 -74 -144 0 -80 10 -94 193 -276 75 -74
134 -138 131 -143 -3 -4 -204 -8 -447 -8 -440 0 -443 0 -484 -22 -94 -52 -103
-85 -103 -408 0 -265 6 -311 43 -361 24 -33 95 -69 136 -69 33 0 87 22 117 47
50 43 53 60 56 260 l3 188 330 3 c181 1 336 0 344 -3 9 -4 -36 -55 -135 -153
-82 -81 -157 -160 -166 -174 -24 -37 -25 -144 -1 -178 32 -47 105 -90 150 -90
64 1 108 37 435 366 289 292 328 334 338 373 9 34 9 55 -1 90 -11 41 -44 79
-328 364 -174 176 -333 330 -353 343 -55 35 -132 34 -184 -5z"/>
<path d="M7209 7592 c-19 -10 -43 -25 -53 -34 -22 -23 -56 -97 -56 -126 0 -32
34 -103 62 -128 53 -50 91 -54 493 -54 l375 0 0 -980 c0 -782 -3 -980 -13
-980 -7 0 -81 69 -166 154 -175 175 -202 191 -290 167 -114 -30 -169 -166
-103 -257 40 -55 633 -645 670 -666 18 -11 51 -18 85 -18 43 0 62 5 93 28 38
28 596 582 662 658 28 33 32 44 32 96 0 40 -4 58 -12 58 -7 0 -21 14 -30 30
-34 60 -118 91 -192 70 -36 -10 -70 -38 -197 -166 -85 -85 -159 -154 -166
-154 -10 0 -13 217 -13 1080 0 979 -2 1084 -16 1122 -18 47 -39 68 -96 98 -36
19 -58 20 -535 19 -444 -1 -502 -2 -534 -17z"/>
<path d="M673 6294 c-40 -17 -78 -67 -92 -119 -28 -107 58 -215 171 -215 50 0
124 45 151 92 27 47 23 135 -8 181 -47 69 -144 96 -222 61z"/>
<path d="M692 5512 c-12 -4 -38 -19 -57 -35 -57 -46 -65 -91 -65 -386 0 -315
11 -360 92 -402 84 -43 188 -15 237 64 20 33 21 47 21 340 0 287 -1 308 -20
339 -30 52 -74 79 -133 83 -29 2 -62 1 -75 -3z"/>
<path d="M2035 4920 c-133 -34 -230 -93 -304 -186 -93 -117 -121 -199 -121
-354 0 -115 0 -116 -27 -136 -16 -11 -35 -23 -43 -27 -8 -4 -28 -16 -45 -27
-16 -11 -37 -23 -45 -27 -8 -4 -33 -19 -55 -34 -22 -15 -59 -37 -83 -50 -46
-25 -54 -30 -117 -69 -120 -74 -238 -144 -265 -158 -24 -12 -32 -10 -90 25
-36 22 -85 47 -110 57 -57 22 -225 32 -302 18 -185 -35 -357 -192 -413 -378
-18 -59 -20 -261 -4 -313 44 -142 152 -274 273 -335 51 -26 78 -46 81 -60 3
-12 4 -201 3 -420 l-3 -400 -55 -29 c-125 -67 -203 -143 -256 -247 -42 -82
-53 -134 -53 -255 -1 -173 40 -277 155 -390 191 -188 461 -216 688 -73 49 31
62 35 80 26 11 -6 171 -101 354 -211 l332 -200 0 -116 c0 -129 15 -189 73
-291 33 -59 128 -159 174 -183 117 -63 169 -77 298 -77 172 0 276 42 390 155
117 117 174 268 162 431 -5 73 -5 73 26 97 18 13 39 27 47 31 17 8 35 19 95
57 22 14 47 29 55 32 8 4 29 16 45 27 17 11 37 23 45 27 8 4 34 20 56 35 23
15 44 28 47 28 4 0 25 13 49 29 24 16 61 39 83 50 52 29 75 42 104 64 31 22
62 22 92 -1 69 -53 222 -102 319 -102 228 0 446 158 525 380 27 76 28 272 2
345 -55 149 -162 268 -299 334 l-48 23 0 422 0 423 74 36 c83 42 196 152 232
228 57 118 59 128 59 259 0 160 -19 216 -113 343 -147 196 -436 267 -656 161
-39 -19 -86 -43 -104 -55 -35 -23 -46 -20 -124 29 -15 9 -160 97 -322 195
l-296 178 7 75 c23 276 -160 522 -438 588 -83 20 -146 19 -234 -4z m213 -359
c45 -23 63 -43 91 -98 46 -92 11 -194 -87 -255 -25 -15 -50 -20 -97 -20 -74 0
-116 20 -161 80 -26 33 -29 45 -29 114 0 87 12 110 84 166 37 28 50 32 102 32
39 0 73 -7 97 -19z m-420 -624 c15 -18 129 -72 193 -91 137 -40 331 -5 446 80
40 31 54 30 111 -3 26 -16 54 -32 64 -38 10 -5 72 -43 139 -84 67 -41 132 -79
143 -85 18 -10 46 -26 121 -73 11 -7 55 -33 98 -59 42 -25 77 -50 78 -55 0 -5
1 -58 1 -119 1 -114 -5 -132 -47 -151 -11 -5 -33 -18 -50 -29 -16 -11 -39 -24
-50 -30 -11 -6 -33 -19 -50 -30 -16 -11 -37 -23 -45 -27 -8 -4 -33 -19 -55
-34 -22 -15 -59 -37 -83 -50 -46 -25 -54 -30 -117 -69 -23 -14 -50 -30 -60
-37 -11 -7 -46 -28 -78 -47 -67 -41 -76 -43 -108 -17 -87 68 -191 101 -324
101 -127 0 -222 -28 -306 -92 -46 -35 -58 -35 -111 1 -24 15 -62 39 -85 52
-187 107 -553 334 -554 343 -5 63 0 251 7 253 5 2 158 93 339 203 182 109 340
199 351 200 12 0 26 -6 32 -13z m-1198 -345 c70 -30 110 -96 110 -181 0 -97
-51 -163 -148 -192 -35 -10 -53 -10 -90 0 -61 16 -86 33 -122 83 -26 36 -30
49 -30 109 0 97 38 153 125 186 57 22 94 21 155 -5z m3211 7 c68 -23 129 -109
129 -181 0 -110 -94 -208 -200 -208 -104 0 -200 96 -200 200 0 78 48 155 115
185 38 17 112 19 156 4z m-2836 -670 c22 -14 59 -37 82 -50 23 -13 97 -57 164
-98 67 -41 132 -79 143 -85 12 -6 39 -23 61 -37 22 -14 45 -28 50 -30 6 -2 31
-18 58 -34 l47 -30 0 -116 c0 -155 23 -228 109 -343 47 -62 140 -137 207 -166
23 -10 44 -26 48 -35 3 -9 6 -198 6 -420 l0 -404 -29 -20 c-16 -12 -33 -21
-38 -21 -4 0 -28 -14 -53 -30 -45 -30 -93 -39 -105 -19 -4 5 -17 14 -28 20
-12 5 -31 15 -42 21 -42 27 -102 63 -134 81 -19 10 -52 31 -75 45 -54 35 -77
49 -101 62 -11 6 -33 19 -50 30 -16 11 -39 24 -50 30 -11 6 -33 19 -50 29 -16
11 -48 29 -70 41 -60 32 -63 40 -57 135 13 209 -111 423 -301 519 l-77 40 2
420 3 420 50 26 c28 14 68 37 90 51 45 29 44 29 140 -32z m2477 12 c35 -21 73
-40 83 -43 19 -3 20 -16 23 -430 l2 -426 -47 -23 c-106 -51 -218 -154 -259
-240 -56 -117 -57 -120 -60 -253 -2 -89 -8 -134 -16 -142 -7 -6 -161 -100
-341 -208 -302 -181 -366 -212 -381 -187 -3 5 -34 23 -68 41 -35 18 -69 37
-76 43 -9 7 -12 100 -10 424 l3 414 25 14 c14 7 43 21 65 31 21 11 74 53 116
94 122 120 178 266 166 431 l-6 80 47 29 c285 177 640 388 653 389 10 1 46
-16 81 -38z m-1261 -311 c71 -20 138 -111 139 -188 1 -140 -166 -245 -289
-182 -83 42 -125 136 -107 235 8 43 89 131 127 138 44 8 94 7 130 -3z m-1621
-926 c85 -17 140 -94 140 -196 -1 -82 -32 -131 -109 -170 -65 -33 -103 -35
-162 -9 -82 37 -119 95 -119 189 0 61 4 74 30 110 16 23 40 47 52 54 31 18
100 37 118 33 8 -2 31 -7 50 -11z m3246 -5 c62 -19 124 -110 124 -182 0 -79
-49 -153 -125 -188 -51 -24 -99 -24 -150 0 -138 63 -168 227 -61 330 55 53
124 66 212 40z m-1598 -976 c70 -43 113 -113 111 -182 0 -53 -38 -120 -87
-158 -40 -30 -50 -33 -112 -33 -116 0 -187 61 -197 169 -9 92 24 158 102 203
40 24 146 24 183 1z"/>
<path d="M7100 4527 c-25 -13 -123 -70 -218 -127 -95 -58 -180 -109 -190 -115
-48 -28 -137 -82 -161 -97 -14 -10 -35 -22 -46 -27 -11 -5 -36 -20 -55 -33
-19 -13 -42 -27 -50 -31 -8 -4 -28 -16 -45 -27 -16 -11 -39 -24 -50 -29 -11
-5 -37 -21 -58 -35 -21 -14 -40 -26 -43 -26 -4 0 -25 -13 -48 -28 -22 -15 -48
-31 -56 -35 -8 -4 -28 -16 -45 -27 -16 -11 -37 -23 -45 -27 -8 -4 -31 -18 -50
-31 -19 -13 -44 -28 -55 -33 -22 -11 -38 -20 -100 -60 -22 -14 -47 -29 -55
-33 -17 -8 -38 -21 -96 -58 -23 -14 -56 -35 -75 -45 -80 -44 -120 -76 -144
-113 l-25 -40 0 -999 c0 -978 0 -1001 20 -1033 11 -19 32 -43 47 -54 21 -16
1331 -807 1421 -859 10 -5 55 -32 100 -60 126 -76 153 -88 197 -88 48 1 85 17
190 84 22 14 47 29 55 32 8 4 29 16 45 27 17 11 37 23 45 27 8 4 33 19 55 33
22 14 49 30 60 37 78 47 182 110 197 118 10 6 257 154 549 330 429 258 538
328 560 359 l29 39 0 1008 0 1007 -32 43 c-30 38 -62 64 -108 86 -8 4 -34 20
-56 35 -23 15 -44 28 -47 28 -4 0 -26 14 -50 30 -25 17 -47 30 -50 30 -4 0
-26 14 -50 30 -25 17 -47 30 -50 30 -4 0 -26 14 -50 30 -25 17 -47 30 -50 30
-4 0 -25 12 -49 28 -24 15 -52 32 -63 39 -11 6 -252 151 -535 322 -283 170
-528 315 -543 320 -43 17 -78 13 -127 -12z m134 -395 c22 -15 48 -31 56 -35 8
-4 29 -16 45 -27 17 -11 37 -23 45 -27 8 -3 33 -18 55 -32 58 -37 78 -49 95
-58 8 -4 31 -18 50 -31 19 -13 44 -28 55 -33 11 -5 34 -18 50 -29 17 -11 37
-23 45 -27 8 -4 34 -20 56 -35 23 -15 44 -28 47 -28 4 0 25 -13 49 -29 24 -16
61 -39 83 -51 22 -12 52 -29 67 -38 15 -9 108 -66 208 -126 100 -61 184 -114
187 -119 5 -9 -44 -56 -59 -57 -6 0 -95 -53 -156 -92 -15 -10 -34 -21 -42 -25
-8 -3 -33 -18 -55 -32 -62 -40 -78 -49 -100 -60 -11 -5 -36 -20 -55 -33 -19
-13 -42 -27 -50 -31 -8 -4 -28 -16 -45 -27 -16 -11 -37 -23 -45 -27 -8 -4 -31
-18 -50 -31 -19 -13 -44 -28 -55 -33 -22 -11 -38 -20 -100 -60 -22 -14 -47
-29 -55 -33 -17 -8 -38 -21 -96 -58 -23 -14 -56 -35 -75 -45 -19 -10 -52 -30
-74 -44 -22 -14 -62 -38 -89 -53 -47 -26 -50 -26 -80 -11 -38 20 -58 32 -113
68 -24 15 -45 27 -47 27 -3 0 -25 14 -49 30 -25 17 -47 30 -50 30 -4 0 -26 14
-50 30 -25 17 -47 30 -50 30 -4 0 -25 12 -49 28 -69 44 -82 51 -103 62 -11 6
-32 18 -47 28 -15 9 -171 104 -347 210 -210 127 -318 197 -315 206 4 10 656
408 1124 686 8 5 38 23 65 39 28 17 56 31 64 31 7 0 32 -13 55 -28z m-1431
-1082 c3 0 26 -13 50 -30 25 -16 47 -30 50 -30 4 0 25 -12 49 -27 24 -16 52
-33 63 -40 11 -7 51 -31 89 -54 39 -23 79 -47 90 -53 12 -6 39 -23 61 -36 23
-14 50 -30 60 -37 382 -229 663 -400 673 -409 9 -10 12 -172 12 -743 0 -708
-1 -731 -19 -731 -10 0 -24 7 -31 15 -7 8 -16 15 -21 15 -7 0 -88 48 -157 92
-15 10 -36 22 -47 27 -11 5 -36 20 -55 33 -19 13 -42 27 -50 31 -8 4 -28 16
-45 27 -16 11 -39 24 -50 29 -11 5 -36 20 -55 33 -19 13 -42 27 -50 31 -8 4
-28 16 -45 27 -16 11 -39 24 -50 29 -11 5 -36 20 -55 33 -19 13 -42 27 -50 31
-8 4 -28 16 -45 27 -16 11 -39 24 -50 30 -11 6 -33 19 -50 30 -16 11 -39 24
-50 30 -23 12 -44 25 -100 61 -22 14 -47 29 -55 32 -8 4 -28 16 -45 27 -16 11
-40 24 -51 29 -12 5 -24 17 -28 26 -3 9 -6 342 -6 740 0 755 0 754 41 719 8
-8 18 -14 22 -14z m2807 -708 c0 -568 -3 -732 -12 -744 -12 -13 -112 -78 -123
-78 -2 0 -23 -13 -47 -29 -24 -15 -62 -39 -85 -52 -23 -13 -250 -149 -504
-302 -254 -153 -467 -276 -475 -273 -12 5 -14 121 -14 729 0 717 0 724 20 742
35 31 1204 733 1223 734 16 1 17 -40 17 -727z"/>
</g>
</svg>
