<svg version="1.0" xmlns="http://www.w3.org/2000/svg"
 width="900.000000pt" height="897.000000pt" viewBox="0 0 900.000000 897.000000"
 preserveAspectRatio="xMidYMid meet">
    <defs>
<linearGradient id="paint0_linear" gradientUnits="userSpaceOnUse">
<stop offset="0.259336" stop-color="#FFDB6E"/>
<stop offset="1" stop-color="#FFBC5E"/>
</linearGradient>
</defs>
<g transform="translate(0.000000,897.000000) scale(0.100000,-0.100000)" stroke="none">
<path d="M3778 7665 c-3 -3 -75 -12 -159 -19 -85 -8 -167 -19 -182 -25 -16 -6
-48 -11 -72 -11 -24 0 -56 -5 -72 -11 -15 -7 -48 -15 -73 -20 -52 -9 -122 -26
-165 -41 -16 -5 -47 -13 -68 -18 -21 -4 -44 -13 -50 -19 -6 -6 -19 -11 -29
-11 -17 0 -65 -18 -121 -46 -16 -8 -35 -14 -42 -14 -7 0 -26 -7 -42 -15 -15
-8 -80 -40 -143 -70 -152 -73 -236 -119 -345 -190 -118 -77 -308 -221 -365
-276 -25 -25 -69 -64 -97 -87 -29 -24 -66 -64 -83 -88 -25 -38 -30 -55 -30
-105 0 -59 1 -61 51 -110 49 -48 52 -49 110 -49 65 0 108 18 157 66 57 55 175
159 191 168 9 5 21 14 26 20 12 14 172 136 178 136 3 0 33 19 68 43 35 23 82
52 104 65 69 38 323 162 333 162 6 0 23 6 39 14 54 27 104 46 121 46 9 0 26 7
36 15 11 8 31 15 45 15 14 0 35 7 45 15 11 8 35 15 53 15 18 0 50 6 70 14 66
23 170 46 212 46 23 0 56 6 74 14 73 30 713 28 832 -3 22 -5 69 -15 105 -20
36 -6 83 -15 105 -20 85 -21 131 -33 160 -43 17 -5 44 -14 60 -18 46 -13 202
-68 222 -79 10 -5 34 -16 53 -24 91 -39 342 -168 366 -188 24 -20 152 -14 183
9 76 56 102 150 60 218 -19 32 -77 83 -109 97 -8 4 -35 19 -60 33 -43 25 -91
49 -220 114 -33 17 -66 30 -74 30 -7 0 -19 7 -26 15 -7 8 -21 15 -31 15 -11 0
-27 4 -37 10 -21 12 -98 40 -132 47 -14 3 -34 12 -45 19 -11 8 -28 14 -38 14
-11 0 -40 6 -66 14 -151 47 -274 76 -318 76 -22 0 -58 6 -79 14 -22 7 -89 16
-149 20 -61 3 -126 11 -145 16 -36 10 -382 14 -392 5z" fill="url(#paint0_linear)"/>
<path d="M3805 6809 c-71 -5 -157 -14 -190 -19 -33 -6 -85 -15 -115 -20 -30
-4 -75 -14 -100 -20 -121 -32 -157 -43 -183 -56 -16 -8 -39 -14 -51 -14 -12 0
-31 -7 -42 -15 -10 -8 -26 -15 -34 -15 -8 0 -42 -13 -75 -29 -33 -16 -85 -41
-115 -55 -30 -15 -77 -40 -105 -56 -27 -17 -59 -34 -70 -40 -74 -37 -290 -205
-390 -304 l-95 -94 0 -65 c0 -66 0 -66 50 -117 51 -50 51 -50 115 -50 76 0
100 12 183 92 70 67 296 238 315 238 7 0 18 5 24 11 29 29 318 169 348 169 8
0 29 6 47 14 31 13 82 28 188 56 25 6 77 16 115 21 39 4 88 13 110 18 65 17
401 14 468 -4 32 -8 76 -15 98 -15 22 0 56 -7 76 -15 19 -8 45 -15 57 -15 19
0 61 -12 151 -42 17 -5 44 -13 60 -17 17 -4 57 -20 90 -35 33 -15 76 -35 95
-43 19 -9 42 -20 50 -24 8 -5 24 -14 35 -19 11 -6 34 -19 50 -29 17 -11 47
-29 69 -41 54 -29 187 -131 274 -209 118 -106 127 -111 202 -111 61 0 68 2
107 38 55 48 73 107 53 176 -10 38 -28 61 -99 128 -47 44 -129 114 -182 154
-89 67 -297 197 -379 236 -145 68 -280 122 -350 138 -19 4 -48 13 -65 18 -45
15 -124 34 -180 43 -27 4 -68 12 -90 17 -22 5 -103 13 -180 16 -77 4 -156 8
-175 10 -19 2 -93 0 -165 -5z" fill="url(#paint0_linear)"/>
<path d="M5999 6737 c-39 -35 -69 -91 -69 -129 1 -41 36 -103 78 -136 35 -28
47 -32 103 -32 60 0 67 3 106 38 27 24 46 53 56 84 14 43 14 51 -3 94 -9 27
-34 63 -54 81 -34 31 -40 33 -108 33 -68 0 -75 -3 -109 -33z" fill="url(#paint0_linear)"/>
<path d="M460 6153 c-75 -27 -161 -73 -223 -120 -63 -49 -156 -158 -157 -184
0 -9 -6 -22 -13 -28 -8 -6 -22 -37 -32 -68 -9 -32 -22 -68 -26 -81 -14 -36
-11 -2388 2 -2431 17 -54 40 -114 50 -131 4 -8 17 -33 29 -55 23 -45 107 -138
161 -178 52 -39 167 -97 192 -97 12 -1 33 -7 47 -15 36 -20 248 -20 297 0 19
8 44 15 53 15 27 0 148 65 202 109 51 41 135 134 149 166 5 11 13 27 18 35 14
24 37 81 55 136 14 47 16 169 16 1238 0 1032 -2 1191 -15 1223 -8 19 -15 46
-15 58 0 12 -7 28 -15 35 -8 7 -15 20 -15 30 0 10 -7 23 -15 30 -8 7 -15 17
-15 22 0 17 -87 122 -126 153 -21 17 -45 38 -53 48 -9 9 -23 17 -33 17 -9 0
-19 4 -22 9 -7 11 -75 42 -141 64 -68 23 -290 23 -355 0z m259 -334 c64 -21
81 -31 128 -73 37 -33 65 -88 82 -158 16 -69 15 -2194 -2 -2264 -48 -203 -292
-295 -461 -174 -45 33 -60 51 -101 120 -20 35 -20 46 -20 1190 0 1141 0 1155
20 1190 11 19 29 47 39 62 22 34 110 98 134 98 9 0 24 5 32 10 21 13 106 12
149 -1z" fill="url(#paint0_linear)"/>
<path d="M6835 6164 c-83 -18 -118 -30 -175 -57 -84 -40 -137 -80 -195 -148
-186 -218 -170 -557 35 -761 38 -37 79 -73 92 -78 13 -6 43 -22 68 -35 25 -13
53 -24 63 -24 10 -1 28 -7 40 -13 14 -8 79 -15 172 -18 l150 -5 5 -915 c5
-847 6 -917 23 -947 9 -18 17 -39 17 -48 0 -22 45 -101 91 -158 58 -74 205
-177 250 -177 11 0 34 -7 50 -16 37 -19 244 -16 299 5 140 53 278 160 320 246
12 25 26 47 31 51 5 3 9 12 9 21 0 8 6 29 14 46 8 18 18 46 22 62 4 17 10 435
13 930 l6 900 150 6 c158 6 176 10 294 67 97 47 196 147 245 246 19 39 37 83
40 99 4 15 13 27 21 27 12 0 15 20 15 118 0 106 -2 118 -20 130 -12 7 -20 23
-21 40 0 15 -11 47 -24 72 -13 25 -29 56 -35 69 -14 31 -151 168 -181 181 -13
5 -31 14 -39 19 -8 5 -33 16 -55 24 -22 8 -56 20 -75 28 -29 11 -187 14 -865
15 -456 1 -839 0 -850 -2z m1675 -369 c7 -8 17 -15 23 -15 15 0 67 -51 67 -66
0 -6 7 -17 15 -24 11 -9 15 -33 15 -92 0 -66 -4 -84 -22 -111 -30 -41 -37 -49
-73 -73 -46 -32 -72 -36 -321 -43 -258 -7 -246 -3 -305 -85 l-29 -39 0 -991 0
-991 -28 -50 c-73 -134 -237 -160 -341 -54 -86 86 -81 16 -81 1123 0 925 -1
977 -18 1005 -10 17 -31 41 -47 53 -28 22 -40 23 -260 29 -126 4 -244 11 -262
15 -44 12 -119 77 -143 124 -48 94 -11 209 90 276 l35 23 836 0 c732 1 838 -1
849 -14z" fill="url(#paint0_linear)"/>
<path d="M3750 5945 c-30 -8 -68 -14 -84 -15 -25 0 -66 -11 -161 -42 -16 -5
-44 -13 -61 -18 -38 -9 -252 -115 -275 -135 -8 -8 -19 -15 -23 -15 -4 0 -44
-28 -89 -62 -95 -71 -224 -197 -289 -283 -58 -78 -118 -170 -138 -213 -31 -69
-64 -140 -76 -164 -8 -14 -14 -35 -14 -46 0 -11 -7 -33 -15 -48 -8 -16 -15
-39 -15 -51 0 -12 -5 -34 -12 -50 -6 -15 -15 -55 -19 -88 -34 -267 -34 -258 0
-505 5 -36 14 -78 20 -93 6 -16 11 -41 11 -56 0 -15 7 -36 15 -47 8 -10 15
-27 15 -36 0 -21 18 -63 80 -189 58 -115 103 -187 171 -271 50 -61 218 -227
230 -228 3 0 19 -12 35 -26 57 -50 253 -157 364 -199 25 -9 60 -23 78 -31 18
-8 41 -14 51 -14 10 0 35 -7 54 -15 20 -8 63 -15 95 -15 32 0 63 -5 69 -11 17
-17 265 -23 338 -9 33 6 89 15 125 20 36 4 80 13 98 19 83 28 99 33 127 41 41
12 97 33 114 44 8 5 48 27 90 48 95 48 98 50 193 121 179 133 360 348 445 527
56 120 93 212 93 235 0 13 7 36 15 51 8 16 15 43 15 60 0 17 7 53 15 80 21 69
21 419 0 488 -8 27 -15 62 -15 79 0 28 -15 82 -47 172 -33 89 -98 226 -135
281 -16 23 -28 45 -28 49 0 18 -106 142 -206 241 -71 70 -151 137 -219 182
-58 40 -109 72 -112 72 -3 0 -44 19 -91 41 -47 23 -99 45 -116 50 -17 4 -44
12 -61 17 -94 31 -135 42 -158 42 -14 0 -52 7 -84 15 -74 19 -335 19 -413 0z
m366 -344 c28 -1 68 -8 87 -16 20 -8 49 -15 65 -15 15 0 37 -7 48 -15 10 -8
27 -15 37 -15 11 0 31 -6 45 -14 15 -8 47 -24 72 -36 234 -113 435 -324 543
-570 60 -137 97 -305 99 -450 2 -90 -35 -302 -67 -390 -21 -57 -24 -64 -34
-80 -4 -8 -18 -35 -30 -60 -43 -90 -122 -201 -201 -281 -59 -59 -180 -159
-194 -159 -3 0 -22 -12 -43 -26 -47 -32 -178 -94 -199 -94 -8 0 -25 -5 -37
-12 -12 -6 -38 -15 -57 -19 -19 -4 -55 -13 -80 -19 -25 -6 -121 -12 -214 -12
-169 0 -261 13 -344 48 -18 8 -39 14 -47 14 -7 0 -26 7 -42 15 -15 7 -48 24
-73 35 -155 74 -346 239 -444 382 -51 75 -136 246 -136 275 0 10 -7 27 -15 37
-8 11 -15 34 -15 50 0 17 -7 53 -15 80 -18 59 -21 340 -4 400 6 21 14 59 19
85 14 78 71 219 121 296 10 17 22 37 26 45 23 51 164 209 238 267 33 26 62 50
65 53 11 12 129 78 190 107 78 37 121 52 178 64 23 5 51 13 61 19 11 5 48 10
83 11 35 0 86 4 113 7 28 4 73 4 100 0 28 -3 73 -7 101 -7z" fill="url(#paint0_linear)"/>
<path d="M3860 5096 c-41 -6 -85 -17 -97 -24 -12 -6 -33 -12 -47 -12 -14 0
-27 -4 -30 -9 -3 -5 -25 -19 -48 -31 -39 -20 -72 -45 -133 -97 -18 -16 -68
-77 -87 -107 -35 -54 -68 -120 -68 -137 0 -11 -6 -32 -14 -47 -29 -57 -26
-279 4 -362 50 -137 122 -238 222 -314 40 -30 84 -59 98 -65 14 -6 32 -15 40
-20 43 -25 178 -53 255 -53 44 0 172 20 205 32 100 37 168 79 242 150 44 41
85 86 92 100 82 159 85 167 107 308 7 44 6 80 -2 120 -6 31 -14 75 -18 97 -12
64 -75 186 -127 247 -69 80 -219 188 -261 188 -8 0 -29 6 -46 14 -30 13 -172
38 -200 35 -7 -1 -46 -7 -87 -13z m222 -366 c74 -37 96 -58 137 -131 28 -50
31 -64 31 -137 0 -99 -19 -143 -95 -217 -90 -88 -212 -108 -324 -51 -61 30
-130 97 -145 141 -1 6 -9 26 -16 45 -17 45 -17 101 1 170 11 45 25 66 76 117
35 35 71 63 80 63 10 0 27 7 37 15 13 10 44 15 88 15 57 0 80 -5 130 -30z" fill="url(#paint0_linear)"/>
<path d="M2310 3057 c-52 -48 -70 -83 -70 -140 0 -66 25 -104 125 -192 38 -33
74 -66 81 -73 32 -32 255 -188 294 -206 17 -8 37 -20 97 -59 24 -15 47 -27 52
-27 5 0 38 -14 72 -31 122 -58 196 -89 215 -89 9 0 30 -6 47 -14 18 -7 61 -21
97 -30 36 -9 86 -23 111 -31 26 -8 64 -15 86 -15 22 0 64 -8 94 -17 79 -24
605 -24 695 0 34 10 81 17 105 17 24 1 55 7 69 15 14 8 39 15 55 15 17 0 62
12 100 26 39 14 84 29 100 31 17 3 39 12 50 19 11 8 27 14 37 14 10 0 34 9 55
19 33 17 118 56 163 75 8 3 29 15 45 26 17 11 39 24 50 30 11 6 34 19 50 30
17 11 37 23 45 27 8 4 42 26 75 50 166 117 329 263 355 318 35 72 20 143 -41
203 -31 30 -37 32 -106 32 -70 0 -77 -2 -121 -36 -26 -19 -73 -60 -104 -90
-56 -53 -105 -91 -243 -181 -72 -47 -159 -99 -185 -109 -8 -3 -43 -19 -77 -35
-35 -16 -69 -29 -76 -29 -7 0 -22 -7 -33 -15 -10 -8 -29 -15 -41 -15 -12 0
-34 -6 -50 -14 -36 -18 -133 -46 -160 -46 -11 0 -37 -7 -56 -15 -20 -8 -60
-15 -90 -15 -29 0 -77 -7 -105 -15 -89 -27 -401 -13 -597 26 -162 32 -314 80
-440 140 -33 16 -65 29 -71 29 -7 0 -17 7 -24 15 -7 8 -19 15 -27 15 -7 0 -26
8 -41 19 -15 10 -79 52 -143 94 -63 42 -149 106 -190 143 -153 138 -147 134
-230 134 -63 -1 -78 -4 -99 -23z" fill="url(#paint0_linear)"/>
<path d="M1771 2482 c-71 -7 -131 -82 -131 -163 0 -60 23 -103 74 -143 30 -22
45 -26 104 -26 68 0 71 1 110 41 47 46 63 101 50 162 -20 93 -97 141 -207 129z" fill="url(#paint0_linear)"/>
<path d="M6069 2483 c-36 -4 -41 -8 -228 -175 -61 -54 -270 -212 -312 -235
-19 -10 -62 -37 -97 -61 -35 -23 -70 -42 -77 -42 -8 0 -16 -4 -19 -8 -3 -5
-54 -33 -113 -62 -131 -63 -167 -79 -290 -124 -89 -32 -110 -38 -143 -46 -19
-4 -46 -12 -60 -18 -14 -5 -61 -17 -105 -27 -44 -9 -101 -23 -126 -31 -26 -8
-73 -14 -106 -14 -33 0 -82 -7 -109 -15 -38 -12 -109 -15 -322 -15 -154 0
-281 4 -291 10 -10 5 -60 12 -112 15 -52 4 -111 13 -132 21 -20 8 -53 14 -72
14 -19 0 -56 7 -82 15 -26 9 -73 23 -103 31 -30 9 -68 20 -85 26 -16 5 -43 13
-60 18 -16 4 -56 19 -89 34 -32 14 -64 26 -70 26 -21 0 -344 166 -401 206
-131 91 -238 95 -309 12 -33 -38 -36 -47 -36 -106 0 -49 5 -71 21 -93 19 -27
120 -109 134 -109 4 0 39 -19 78 -43 105 -63 383 -197 410 -197 6 0 21 -7 31
-15 11 -8 29 -15 40 -15 12 0 30 -7 40 -15 11 -8 30 -15 42 -15 12 0 35 -6 51
-14 15 -8 55 -21 88 -30 33 -10 81 -24 106 -32 26 -7 60 -14 77 -14 16 0 46
-7 65 -15 20 -8 54 -15 76 -15 22 0 60 -6 83 -14 24 -8 86 -17 138 -20 52 -4
151 -11 220 -15 203 -15 657 23 791 65 26 7 57 14 70 14 13 0 44 6 69 14 25 8
72 22 105 31 33 9 75 23 93 31 18 8 41 14 52 14 11 0 36 7 57 16 21 9 52 23
68 29 17 7 48 21 70 30 22 10 54 23 70 30 51 22 188 90 233 115 9 6 27 14 40
20 12 5 50 28 83 50 33 22 63 40 66 40 3 0 22 14 43 30 21 17 41 30 44 30 11
0 204 147 281 214 182 158 224 211 225 282 0 71 -68 164 -121 164 -15 0 -33 1
-41 3 -7 2 -29 2 -49 0z" fill="url(#paint0_linear)"/>
</g>
</svg>
