<svg xmlns="http://www.w3.org/2000/svg" xmlns:xlink="http://www.w3.org/1999/xlink" version="1.1" width="80" height="80" viewBox="0 0 1040 1040" xml:space="preserve">
<defs>
<linearGradient id="paint0_linear" x1="1.92667" y1="4.65138e-07" x2="19.7024" y2="29.0178" gradientUnits="userSpaceOnUse">
<stop offset="0.259336" stop-color="#FFDB6E"/>
<stop offset="1" stop-color="#FFBC5E"/>
</linearGradient>
</defs>
<g transform="matrix(1 0 0 1 540 540)" id="f3015973-4cdc-4712-9add-ef9547c71316"  >
<rect style="stroke: none; stroke-width: 1; stroke-dasharray: none; stroke-linecap: butt; stroke-dashoffset: 0; stroke-linejoin: miter; stroke-miterlimit: 4; fill: rgb(255,255,255); fill-rule: nonzero; opacity: 1; visibility: hidden;" vector-effect="non-scaling-stroke"  x="-540" y="-540" rx="0" ry="0" width="1080" height="1080" />
</g>
<g transform="matrix(1 0 0 1 540 540)" id="f9c579d3-9e2c-4f0f-8d77-5501006a72a3"  >
</g>
<g transform="matrix(0.13 0 0 -0.13 520.71 551.77)"  >
<path style="stroke: none; stroke-width: 1; stroke-dasharray: none; stroke-linecap: butt; stroke-dashoffset: 0; stroke-linejoin: miter; stroke-miterlimit: 4; " vector-effect="non-scaling-stroke"  transform=" translate(-4346.95, -4399.97)" d="M 3884 7402 C 3846 7374 3837 7357 3785 7220 C 3778 7201 3758 7149 3740 7105 C 3722 7061 3701 7007 3692 6985 C 3671 6932 3665 6927 3595 6906 C 3538 6889 3519 6882 3418 6844 C 3348 6818 3321 6806 3190 6741 C 3121 6708 3052 6680 3037 6680 C 3022 6680 2982 6693 2947 6709 C 2887 6738 2806 6774 2725 6809 C 2703 6819 2668 6834 2647 6843 C 2600 6864 2568 6864 2527 6844 C 2509 6835 2366 6698 2207 6540 C 1935 6267 1890 6214 1890 6164 C 1890 6147 1935 6031 1974 5947 C 2009 5873 2045 5791 2064 5746 L 2080 5707 L 2011 5566 C 1973 5489 1932 5400 1920 5370 C 1909 5340 1895 5306 1891 5295 C 1874 5251 1858 5203 1849 5166 C 1835 5109 1813 5072 1788 5065 C 1775 5061 1752 5052 1735 5045 C 1719 5038 1687 5026 1665 5017 C 1624 5002 1568 4980 1495 4952 C 1374 4906 1351 4889 1331 4831 C 1313 4777 1316 4000 1334 3955 C 1348 3922 1421 3860 1446 3860 C 1453 3860 1474 3854 1492 3846 C 1510 3838 1543 3825 1565 3817 C 1817 3723 1820 3722 1840 3657 C 1866 3575 1890 3501 1899 3478 C 1904 3466 1918 3430 1930 3400 C 1942 3370 1980 3288 2016 3218 L 2079 3090 L 2029 2973 C 1979 2856 1946 2781 1929 2747 C 1924 2738 1913 2709 1904 2683 C 1874 2595 1879 2588 2188 2276 C 2340 2123 2483 1985 2504 1969 C 2548 1936 2613 1930 2658 1954 C 2673 1962 2712 1981 2745 1995 C 2778 2010 2825 2031 2850 2042 C 2875 2053 2923 2075 2957 2091 C 2992 2107 3028 2120 3037 2120 C 3047 2120 3111 2093 3180 2059 C 3310 1995 3337 1983 3408 1956 C 3493 1923 3527 1912 3598 1889 C 3679 1863 3673 1870 3726 1728 C 3734 1707 3746 1673 3754 1653 C 3762 1632 3783 1577 3801 1530 C 3825 1468 3844 1435 3873 1407 L 3913 1370 L 4348 1370 C 4856 1370 4827 1364 4880 1476 C 4896 1511 4910 1544 4910 1550 C 4910 1555 4916 1574 4924 1592 C 4932 1610 4946 1645 4955 1670 C 4964 1695 4978 1727 4986 1742 C 4994 1756 5000 1776 5000 1787 C 5000 1817 5048 1880 5071 1880 C 5082 1880 5101 1885 5113 1892 C 5125 1898 5148 1907 5165 1911 C 5226 1926 5428 2006 5444 2021 C 5450 2026 5459 2030 5465 2030 C 5471 2030 5514 2050 5560 2075 C 5606 2100 5652 2120 5663 2120 C 5674 2120 5708 2108 5739 2094 C 5770 2080 5815 2059 5840 2048 C 5865 2037 5903 2020 5925 2010 C 6091 1933 6137 1924 6188 1958 C 6202 1967 6346 2107 6506 2267 C 6767 2528 6799 2564 6805 2599 C 6814 2653 6795 2711 6700 2915 C 6685 2948 6660 3001 6646 3033 L 6620 3091 L 6657 3158 C 6677 3195 6696 3230 6700 3235 C 6729 3277 6849 3591 6865 3667 C 6872 3700 6911 3740 6936 3740 C 6943 3740 6964 3746 6982 3754 C 7000 3762 7035 3776 7060 3785 C 7085 3795 7114 3806 7125 3811 C 7136 3815 7170 3829 7200 3840 C 7314 3885 7328 3893 7351 3924 L 7375 3955 L 7375 4402 L 7375 4849 L 7347 4878 C 7317 4909 7297 4919 7160 4970 C 7072 5003 7042 5016 6977 5044 C 6956 5053 6933 5060 6926 5060 C 6904 5060 6860 5119 6860 5146 C 6860 5160 6855 5181 6848 5193 C 6842 5205 6833 5228 6829 5245 C 6809 5322 6767 5421 6679 5593 C 6622 5704 6620 5712 6633 5738 C 6648 5765 6666 5805 6715 5915 C 6763 6024 6772 6045 6785 6070 C 6804 6107 6813 6164 6805 6202 C 6799 6228 6735 6298 6506 6528 C 6346 6690 6198 6830 6178 6841 C 6119 6871 6108 6869 5933 6789 C 5909 6779 5871 6761 5848 6751 C 5689 6679 5639 6665 5614 6689 C 5601 6702 5437 6783 5370 6810 C 5340 6822 5301 6839 5283 6846 C 5266 6854 5247 6860 5241 6860 C 5235 6860 5216 6866 5198 6874 C 5180 6882 5136 6897 5101 6907 C 5033 6926 5031 6929 4987 7045 C 4978 7067 4951 7137 4926 7200 C 4901 7264 4880 7321 4880 7327 C 4880 7345 4830 7399 4799 7415 C 4776 7428 4700 7430 4347 7430 L 3923 7430 L 3884 7402 z M 4642 7133 C 4657 7116 4680 7065 4716 6968 C 4753 6870 4763 6843 4776 6812 C 4784 6794 4790 6773 4790 6766 C 4790 6735 4857 6684 4921 6666 C 5174 6594 5366 6514 5544 6407 C 5615 6364 5680 6365 5775 6409 C 5928 6480 5947 6489 6007 6514 C 6041 6528 6075 6540 6082 6540 C 6096 6540 6500 6141 6500 6127 C 6500 6123 6487 6092 6471 6057 C 6442 5997 6406 5916 6371 5835 C 6361 5813 6346 5778 6337 5757 C 6311 5700 6316 5672 6365 5586 C 6389 5543 6427 5471 6449 5426 C 6483 5355 6498 5320 6542 5210 C 6555 5178 6583 5090 6605 5015 C 6639 4898 6653 4876 6712 4847 C 6741 4833 6783 4815 6805 4807 C 6844 4792 6944 4753 7045 4712 L 7095 4691 L 7098 4401 L 7100 4110 L 7058 4090 C 7034 4080 6961 4050 6895 4025 C 6708 3953 6696 3948 6674 3928 C 6646 3903 6625 3859 6605 3780 C 6596 3744 6583 3704 6578 3690 C 6572 3676 6564 3652 6559 3635 C 6537 3552 6434 3330 6356 3195 C 6337 3162 6321 3122 6320 3107 C 6320 3082 6371 2941 6390 2915 C 6394 2910 6417 2860 6440 2805 C 6463 2750 6486 2701 6491 2695 C 6496 2690 6500 2680 6500 2673 C 6500 2661 6098 2250 6087 2250 C 6081 2250 6016 2277 5950 2307 C 5920 2321 5877 2340 5855 2350 C 5678 2431 5627 2439 5555 2395 C 5502 2363 5266 2247 5213 2226 C 5111 2188 5092 2181 5045 2166 C 5018 2158 4966 2144 4930 2134 C 4862 2116 4805 2075 4794 2036 C 4791 2024 4775 1981 4758 1940 C 4742 1899 4722 1848 4714 1828 C 4706 1807 4693 1771 4684 1748 C 4675 1724 4663 1694 4656 1680 L 4644 1655 L 4352 1652 L 4060 1650 L 4049 1677 C 4042 1693 4032 1719 4025 1735 C 4012 1765 3989 1824 3965 1890 C 3922 2006 3886 2079 3862 2097 C 3847 2107 3806 2124 3770 2134 C 3527 2203 3378 2265 3158 2389 C 3075 2436 3023 2431 2860 2357 C 2791 2325 2727 2295 2716 2289 C 2706 2283 2679 2272 2657 2264 L 2616 2249 L 2413 2452 C 2301 2564 2210 2663 2210 2672 C 2210 2682 2224 2720 2241 2757 C 2258 2795 2280 2843 2291 2865 C 2346 2985 2380 3075 2380 3100 C 2380 3129 2364 3169 2326 3235 C 2222 3418 2129 3644 2091 3810 C 2080 3858 2059 3901 2038 3922 C 2024 3937 1910 3986 1728 4056 C 1707 4064 1672 4077 1650 4087 L 1610 4103 L 1610 4399 L 1610 4695 L 1698 4728 C 2036 4856 2058 4869 2081 4952 C 2103 5033 2150 5185 2166 5225 C 2218 5357 2243 5411 2300 5515 C 2373 5648 2383 5671 2377 5711 C 2372 5746 2364 5767 2310 5885 C 2246 6024 2210 6118 2214 6135 C 2217 6146 2307 6242 2414 6348 C 2604 6538 2609 6542 2642 6535 C 2660 6531 2684 6523 2695 6516 C 2706 6509 2767 6482 2830 6455 C 2893 6428 2956 6399 2969 6391 C 3004 6369 3099 6370 3134 6393 C 3247 6468 3527 6593 3670 6633 C 3886 6694 3882 6690 3940 6840 C 3951 6870 3965 6904 3969 6915 C 3974 6926 3985 6955 3995 6980 C 4004 7005 4018 7040 4026 7058 C 4034 7076 4040 7097 4040 7105 C 4040 7113 4050 7126 4062 7134 C 4081 7148 4126 7150 4356 7150 C 4601 7150 4628 7148 4642 7133 z" fill="url(#paint0_linear)" stroke-linecap="round" />
</g>
<g transform="matrix(0.13 0 0 -0.13 521.47 551.88)"  >
<path style="stroke: none; stroke-width: 1; stroke-dasharray: none; stroke-linecap: butt; stroke-dashoffset: 0; stroke-linejoin: miter; stroke-miterlimit: 4; " vector-effect="non-scaling-stroke"  transform=" translate(-4352.67, -4399.14)" d="M 4175 6230 C 3956 6213 3775 6160 3543 6049 C 3242 5903 2998 5688 2806 5396 C 2775 5349 2750 5309 2750 5306 C 2750 5303 2737 5279 2722 5253 C 2686 5191 2617 5025 2589 4936 C 2514 4689 2492 4395 2529 4142 C 2549 4009 2556 3980 2593 3855 C 2710 3459 2991 3087 3350 2855 C 3468 2778 3709 2660 3746 2660 C 3754 2660 3774 2654 3792 2646 C 3827 2631 3891 2614 4025 2583 C 4140 2557 4570 2557 4680 2583 C 4853 2624 5027 2678 5088 2709 C 5097 2714 5138 2734 5178 2754 C 5356 2843 5500 2948 5650 3099 C 5760 3210 5794 3248 5857 3340 C 6036 3597 6141 3871 6181 4185 C 6210 4412 6190 4661 6123 4900 C 6097 4991 6039 5144 6009 5200 C 6004 5208 5989 5238 5975 5265 C 5961 5293 5940 5329 5930 5345 C 5919 5362 5907 5382 5903 5390 C 5892 5416 5779 5562 5716 5634 C 5550 5823 5242 6036 5020 6114 C 4778 6201 4646 6227 4430 6234 C 4345 6236 4230 6234 4175 6230 z M 4555 5945 C 4722 5919 4832 5888 4968 5830 C 5252 5709 5525 5471 5686 5205 C 5723 5145 5810 4966 5810 4951 C 5810 4945 5816 4926 5824 4908 C 5841 4866 5864 4786 5887 4685 C 5912 4572 5912 4219 5887 4110 C 5810 3779 5690 3548 5482 3329 C 5399 3241 5227 3098 5180 3077 C 5172 3073 5158 3066 5150 3060 C 5061 3002 4891 2928 4770 2895 C 4508 2824 4223 2821 3965 2887 C 3932 2895 3890 2908 3872 2916 C 3854 2924 3832 2930 3824 2930 C 3815 2930 3796 2936 3782 2943 C 3767 2951 3711 2978 3658 3004 C 3230 3214 2924 3610 2826 4080 C 2805 4184 2790 4312 2790 4395 C 2790 4479 2813 4677 2829 4740 C 2867 4885 2883 4931 2932 5038 C 2947 5072 2960 5102 2960 5105 C 2960 5107 2981 5144 3007 5187 C 3117 5369 3255 5522 3420 5646 C 3472 5685 3522 5720 3530 5724 C 3538 5728 3554 5736 3565 5743 C 3636 5787 3813 5870 3836 5870 C 3843 5870 3864 5876 3882 5884 C 3938 5908 3991 5919 4185 5950 C 4271 5963 4450 5961 4555 5945 z" fill="url(#paint0_linear)" stroke-linecap="round" />
</g>
<g transform="matrix(0.13 0 0 -0.13 521.73 552.12)"  >
<path style="stroke: none; stroke-width: 1; stroke-dasharray: none; stroke-linecap: butt; stroke-dashoffset: 0; stroke-linejoin: miter; stroke-miterlimit: 4; " vector-effect="non-scaling-stroke"  transform=" translate(-4354.62, -4397.32)" d="M 4463 5175 C 4446 5168 4425 5151 4417 5138 C 4395 5105 4372 5025 4266 4620 C 4256 4584 4242 4530 4233 4500 C 4214 4431 4196 4363 4174 4280 C 4165 4244 4152 4195 4145 4170 C 4129 4112 4101 4009 4083 3940 C 4075 3910 4062 3864 4054 3839 C 4046 3813 4040 3770 4040 3743 C 4040 3650 4131 3582 4217 3611 C 4257 3624 4310 3675 4310 3700 C 4310 3708 4316 3735 4324 3760 C 4339 3809 4359 3878 4386 3980 C 4403 4046 4423 4119 4445 4200 C 4452 4225 4465 4272 4473 4305 C 4502 4417 4522 4495 4535 4540 C 4557 4621 4577 4694 4594 4760 C 4624 4871 4641 4933 4656 4981 C 4677 5051 4674 5082 4640 5129 C 4595 5190 4534 5206 4463 5175 z" fill="url(#paint0_linear)" stroke-linecap="round" />
</g>
<g transform="matrix(0.13 0 0 -0.13 414.35 552.31)"  >
<path style="stroke: none; stroke-width: 1; stroke-dasharray: none; stroke-linecap: butt; stroke-dashoffset: 0; stroke-linejoin: miter; stroke-miterlimit: 4; " vector-effect="non-scaling-stroke"  transform=" translate(-3549.26, -4395.93)" d="M 3775 5006 C 3749 4994 3709 4963 3608 4875 C 3594 4862 3497 4781 3393 4694 C 3290 4608 3191 4524 3174 4508 C 3107 4445 3107 4354 3172 4292 C 3202 4264 3319 4164 3608 3921 C 3795 3763 3816 3754 3890 3792 C 3952 3824 3985 3887 3969 3945 C 3956 3993 3918 4031 3721 4195 C 3642 4261 3563 4327 3546 4342 C 3529 4357 3512 4370 3508 4370 C 3503 4370 3500 4381 3500 4394 C 3500 4410 3515 4430 3548 4456 C 3574 4477 3640 4533 3695 4580 C 3750 4627 3815 4682 3840 4702 C 3934 4778 3955 4803 3974 4864 C 3978 4876 3970 4905 3954 4937 C 3935 4978 3920 4994 3893 5005 C 3850 5023 3814 5023 3775 5006 z" fill="url(#paint0_linear)" stroke-linecap="round" />
</g>
<g transform="matrix(0.13 0 0 -0.13 628.38 552.09)"  >
<path style="stroke: none; stroke-width: 1; stroke-dasharray: none; stroke-linecap: butt; stroke-dashoffset: 0; stroke-linejoin: miter; stroke-miterlimit: 4; " vector-effect="non-scaling-stroke"  transform=" translate(-5154.44, -4397.55)" d="M 4802 5000 C 4732 4957 4710 4872 4753 4809 C 4765 4791 4834 4727 4905 4667 C 4976 4608 5048 4547 5065 4532 C 5081 4517 5118 4487 5145 4465 C 5199 4422 5210 4410 5210 4395 C 5210 4390 5181 4361 5146 4332 C 5111 4303 5069 4268 5053 4254 C 5038 4240 4996 4204 4960 4175 C 4827 4066 4769 4014 4750 3985 C 4702 3912 4745 3811 4838 3779 C 4880 3765 4939 3785 4991 3832 C 5011 3850 5089 3917 5165 3980 C 5299 4092 5416 4190 5512 4272 C 5565 4317 5585 4363 5577 4422 C 5570 4472 5555 4489 5370 4644 C 5290 4711 5214 4775 5200 4787 C 5186 4798 5154 4825 5129 4846 C 5104 4868 5057 4908 5025 4935 C 4923 5023 4867 5040 4802 5000 z" fill="url(#paint0_linear)" stroke-linecap="round" />
</g>
</svg>